<svg xmlns="http://www.w3.org/2000/svg" viewBox="0 0 100 100">
  <circle cx="50" cy="50" r="45" fill="#1A1A1A"/>
  <!-- Monogram "Av" Accords en Valromey -->
  <path d="M30 65 C26 56, 32 46, 40 42 C48 38, 56 34, 60 30 C64 26, 64 24, 60 26 C56 28, 48 32, 44 38 C40 44, 44 50, 50 50 C56 50, 60 46, 62 42 C64 38, 64 36, 62 36 C60 36, 58 38, 58 42"
        fill="none" stroke="#F9FFF7" stroke-width="4" stroke-linecap="round" stroke-linejoin="round"/>
  <path d="M62 42 C64 38, 68 30, 74 28 C80 26, 80 28, 76 34 C72 40, 66 44, 62 46 C58 48, 56 46, 58 44 C60 42, 68 37, 74 38"
        fill="none" stroke="#F9FFF7" stroke-width="4" stroke-linecap="round" stroke-linejoin="round"/>
</svg>
